<?xml version="1.0" standalone="no"?>
<!DOCTYPE svg PUBLIC "-//W3C//DTD SVG 20010904//EN"
 "http://www.w3.org/TR/2001/REC-SVG-20010904/DTD/svg10.dtd">
<svg version="1.0" xmlns="http://www.w3.org/2000/svg"
 width="434.000000pt" height="434.000000pt" viewBox="0 0 434.000000 434.000000"
 preserveAspectRatio="xMidYMid meet">
<metadata>
Created by potrace 1.14, written by Peter Selinger 2001-2017
</metadata>
<g transform="translate(0.000000,434.000000) scale(0.100000,-0.100000)"
fill="#000000" stroke="none">
<path d="M3315 3937 c-22 -13 -87 -54 -145 -92 -130 -85 -421 -270 -475 -302
-32 -19 -412 -260 -580 -368 -128 -82 -380 -242 -585 -371 -129 -81 -341 -216
-470 -299 -129 -83 -280 -180 -335 -214 -55 -34 -154 -98 -220 -141 -66 -44
-192 -125 -280 -181 -172 -110 -205 -135 -205 -156 0 -16 108 -207 162 -288
73 -106 100 -176 100 -258 1 -107 -39 -191 -139 -296 l-44 -46 6 -59 c11 -93
83 -226 166 -308 112 -111 262 -171 424 -171 123 1 237 46 425 170 41 27 109
71 150 98 111 72 373 246 845 561 387 259 525 350 1105 732 865 570 1095 727
1095 749 0 11 -30 33 -87 62 -193 102 -314 210 -379 338 -31 61 -34 74 -33
152 1 73 6 101 38 186 20 55 46 122 58 148 l22 48 -22 22 -22 22 -44 -23 c-58
-31 -111 -22 -216 39 -30 17 -183 169 -228 227 -18 23 -36 42 -40 42 -4 0 -25
-11 -47 -23z"/>
</g>
</svg>
